<?xml version="1.0" standalone="no"?>
<!DOCTYPE svg PUBLIC "-//W3C//DTD SVG 20010904//EN"
 "http://www.w3.org/TR/2001/REC-SVG-20010904/DTD/svg10.dtd">
<svg version="1.0" xmlns="http://www.w3.org/2000/svg"
 width="1369.000000pt" height="1369.000000pt" viewBox="0 0 1369.000000 1369.000000"
 preserveAspectRatio="xMidYMid meet">
<metadata>
Created by potrace 1.14, written by Peter Selinger 2001-2017
</metadata>
<g transform="translate(0.000000,1369.000000) scale(0.100000,-0.100000)"
fill="#000000" stroke="none">
<path d="M7713 11345 c-915 -95 -1733 -478 -2369 -1110 -83 -82 -172 -174
-198 -203 l-47 -53 -112 25 c-62 13 -155 30 -207 37 -121 17 -446 17 -570 1
-921 -121 -1682 -734 -1976 -1592 l-32 -95 -119 -41 c-859 -295 -1550 -959
-1878 -1803 -89 -230 -143 -439 -182 -696 -28 -188 -25 -658 5 -855 85 -545
298 -1038 634 -1462 102 -130 363 -391 490 -491 437 -345 924 -556 1503 -650
125 -20 168 -21 1133 -24 l1002 -4 0 671 0 670 -915 0 c-779 0 -930 2 -1022
16 -393 57 -735 226 -1006 497 -333 333 -507 754 -507 1227 0 897 584 1633
1417 1785 166 31 506 30 630 -1 22 -6 24 -4 19 13 -39 121 -57 362 -37 490 27
172 101 353 199 486 316 427 920 636 1420 491 215 -62 375 -168 523 -346 26
-32 50 -54 52 -50 3 4 21 47 41 95 132 321 377 682 618 913 410 393 869 619
1431 705 191 29 556 37 741 15 621 -72 1140 -322 1551 -747 464 -479 722
-1132 763 -1934 l7 -130 50 -2 c231 -11 483 -72 666 -163 183 -90 287 -165
434 -314 317 -319 485 -771 485 -1303 0 -486 -187 -929 -531 -1258 -257 -246
-537 -389 -904 -463 -68 -14 -193 -17 -805 -22 l-725 -5 -3 -668 -2 -668 772
4 c743 3 778 4 913 26 675 108 1255 401 1725 871 471 471 769 1060 870 1725
27 177 38 561 21 727 -50 470 -184 894 -402 1265 -298 505 -704 896 -1216
1170 -56 30 -104 62 -107 71 -3 9 -16 69 -30 132 -111 501 -366 1051 -678
1464 -220 290 -512 583 -783 785 -567 424 -1176 670 -1897 767 -160 22 -681
27 -855 9z"/>
<path d="M5861 6103 l-1221 -1228 560 -3 560 -2 0 -1270 0 -1270 1330 0 1330
0 0 1270 0 1270 561 0 561 0 -1224 1230 c-672 676 -1226 1230 -1230 1230 -3 0
-556 -552 -1227 -1227z"/>
</g>
</svg>
